<svg width="136" height="38" viewBox="0 0 136 38" fill="none" xmlns="http://www.w3.org/2000/svg">
<path fill-rule="evenodd" clip-rule="evenodd" d="M46.3999 22.8124H49.6968C49.8555 24.1487 51.2603 25.0246 53.0731 25.0246C54.8972 25.0246 56.1434 24.1599 56.1434 22.9696C56.1434 21.9141 55.3617 21.3302 53.3903 20.8922L51.2603 20.4318C48.2466 19.7917 46.7625 18.2758 46.7625 15.9064C46.7625 12.9194 49.3683 10.943 53.0164 10.943C56.8232 10.943 59.2138 12.8857 59.2704 15.8166H56.0641C55.9508 14.4466 54.7386 13.6156 53.0278 13.6156C51.3396 13.6156 50.2067 14.4129 50.2067 15.6144C50.2067 16.6138 50.9998 17.1753 52.8805 17.602L54.8632 18.0175C58.1375 18.7137 59.565 20.1062 59.565 22.5766C59.565 25.7208 56.9932 27.7084 52.9371 27.7084C49.0057 27.7084 46.5019 25.8556 46.3999 22.8124ZM66.4703 17.2988C64.9635 17.2988 63.8532 18.3881 63.7399 19.9714H69.1215C69.0648 18.3544 67.9998 17.2988 66.4703 17.2988ZM69.1668 23.6546H72.2145C71.8519 26.0464 69.5973 27.641 66.561 27.641C62.7655 27.641 60.4429 25.2267 60.4429 21.2964C60.4429 17.3661 62.7768 14.8508 66.4363 14.8508C70.0278 14.8508 72.3164 17.2314 72.3164 20.9932V22.0038H63.7059V22.206C63.7059 23.9914 64.8728 25.193 66.6176 25.193C67.8639 25.193 68.8496 24.609 69.1668 23.6546ZM84.8526 19.6232H81.771C81.5897 18.3431 80.6833 17.4335 79.2444 17.4335C77.545 17.4335 76.4687 18.8709 76.4687 21.2403C76.4687 23.6546 77.545 25.047 79.2558 25.047C80.6493 25.047 81.567 24.2946 81.7823 22.9359H84.864C84.6714 25.8106 82.4961 27.641 79.2218 27.641C75.4943 27.641 73.1151 25.2154 73.1151 21.2403C73.1151 17.3212 75.4943 14.8508 79.1991 14.8508C82.5527 14.8508 84.694 16.8721 84.8526 19.6232ZM86.8862 12.313H90.1945V15.0642H92.5057V17.5459H90.1945V23.5536C90.1945 24.5081 90.6703 24.9685 91.6786 24.9685C91.9732 24.9685 92.3018 24.946 92.5057 24.9123V27.3379C92.1658 27.4052 91.5767 27.4726 90.9082 27.4726C88.0192 27.4726 86.8862 26.5069 86.8862 24.0926V17.5459H85.1981V15.0642H86.8862V12.313ZM93.9388 27.4276V15.0641H97.2471V27.4276H93.9388ZM95.5929 13.7166C94.6186 13.7166 93.8142 12.9755 93.8142 11.9985C93.8142 11.0216 94.6186 10.2917 95.5929 10.2917C96.5786 10.2917 97.383 11.0216 97.383 11.9985C97.383 12.9755 96.5786 13.7166 95.5929 13.7166ZM104.719 27.641C100.935 27.641 98.5668 25.2379 98.5668 21.2403C98.5668 17.2875 100.969 14.8508 104.719 14.8508C108.48 14.8508 110.871 17.2763 110.871 21.2403C110.871 25.2491 108.503 27.641 104.719 27.641ZM104.719 25.1143C106.464 25.1143 107.506 23.6994 107.506 21.2402C107.506 18.8034 106.452 17.366 104.719 17.366C102.974 17.366 101.92 18.8146 101.92 21.2402C101.92 23.6994 102.974 25.1143 104.719 25.1143ZM112.123 27.4275V15.064H115.318V17.2762H115.386C116.099 15.7153 117.482 14.8844 119.396 14.8844C122.161 14.8844 123.838 16.6137 123.838 19.4996V27.4275H120.529V20.1846C120.529 18.5451 119.646 17.6131 118.082 17.6131C116.496 17.6131 115.431 18.736 115.431 20.3755V27.4275H112.123ZM125.293 18.7024C125.293 16.378 127.355 14.8508 130.516 14.8508C133.598 14.8508 135.649 16.4116 135.694 18.7698H132.635C132.567 17.7929 131.74 17.1752 130.471 17.1752C129.281 17.1752 128.488 17.703 128.488 18.5003C128.488 19.1179 129.032 19.5334 130.154 19.7917L132.499 20.297C135.003 20.8585 136 21.8129 136 23.6546C136 26.0576 133.768 27.641 130.505 27.641C127.219 27.641 125.157 26.0689 124.987 23.6882H128.216C128.375 24.7326 129.225 25.3165 130.596 25.3165C131.91 25.3165 132.714 24.8112 132.714 24.0027C132.714 23.3626 132.284 23.0257 131.151 22.7562L128.851 22.2397C126.506 21.7119 125.293 20.5103 125.293 18.7024Z" fill="#141414"/>
<path fill-rule="evenodd" clip-rule="evenodd" d="M19.2 38C29.8039 38 38.4 29.4934 38.4 19C38.4 8.50659 29.8039 0 19.2 0C8.59613 0 0 8.50659 0 19C0 29.4934 8.59613 38 19.2 38Z" fill="#FF8364"/>
<path opacity="0.4" fill-rule="evenodd" clip-rule="evenodd" d="M13.2415 18.3447H25.1587C27.3526 18.3447 29.1311 20.1047 29.1311 22.2758V26.2068C29.1311 28.3778 27.3526 30.1378 25.1587 30.1378H13.2415C11.0476 30.1378 9.26904 28.3778 9.26904 26.2068V22.2758C9.26904 20.1047 11.0476 18.3447 13.2415 18.3447Z" fill="white"/>
<path opacity="0.6" fill-rule="evenodd" clip-rule="evenodd" d="M13.2415 13.1035H25.1587C27.3526 13.1035 29.1311 14.8634 29.1311 17.0345V20.9655C29.1311 23.1366 27.3526 24.8966 25.1587 24.8966H13.2415C11.0476 24.8966 9.26904 23.1366 9.26904 20.9655V17.0345C9.26904 14.8634 11.0476 13.1035 13.2415 13.1035Z" fill="white"/>
<path opacity="0.8" fill-rule="evenodd" clip-rule="evenodd" d="M13.2415 7.86215H25.1587C27.3526 7.86215 29.1311 9.62214 29.1311 11.7932V15.7242C29.1311 17.8953 27.3526 19.6553 25.1587 19.6553H13.2415C11.0476 19.6553 9.26904 17.8953 9.26904 15.7242V11.7932C9.26904 9.62214 11.0476 7.86215 13.2415 7.86215Z" fill="white"/>
</svg>
