<svg width="292" height="227" viewBox="0 0 292 227" fill="none" xmlns="http://www.w3.org/2000/svg">
<g filter="url(#filter0_ii)">
<path fill-rule="evenodd" clip-rule="evenodd" d="M1 121.151C1 120.661 1.39718 120.264 1.88736 120.264H4.11111V162.462H1.88736C1.39728 162.462 1 162.065 1 161.576L1 121.151Z" fill="#E1E1E1"/>
</g>
<path fill-rule="evenodd" clip-rule="evenodd" d="M1 121.151C1 120.661 1.39718 120.264 1.88736 120.264H4.11111V162.462H1.88736C1.39728 162.462 1 162.065 1 161.576L1 121.151Z" stroke="#D2D2D2"/>
<g filter="url(#filter1_ii)">
<path fill-rule="evenodd" clip-rule="evenodd" d="M1 174.009C1 173.52 1.39718 173.123 1.88736 173.123H4.11111V215.321H1.88736C1.39728 215.321 1 214.923 1 214.435V174.009Z" fill="#E1E1E1"/>
</g>
<path fill-rule="evenodd" clip-rule="evenodd" d="M1 174.009C1 173.52 1.39718 173.123 1.88736 173.123H4.11111V215.321H1.88736C1.39728 215.321 1 214.923 1 214.435V174.009Z" stroke="#D2D2D2"/>
<g filter="url(#filter2_ii)">
<path fill-rule="evenodd" clip-rule="evenodd" d="M1 79.8427C1 79.3524 1.39718 78.955 1.88736 78.955H4.11111V102.053H1.88736C1.39728 102.053 1 101.657 1 101.165V79.8427Z" fill="#E1E1E1"/>
</g>
<path fill-rule="evenodd" clip-rule="evenodd" d="M1 79.8427C1 79.3524 1.39718 78.955 1.88736 78.955H4.11111V102.053H1.88736C1.39728 102.053 1 101.657 1 101.165V79.8427Z" stroke="#D2D2D2"/>
<g filter="url(#filter3_ii)">
<path fill-rule="evenodd" clip-rule="evenodd" d="M287.889 133.59H289.89C290.503 133.59 291 134.085 291 134.699V201.33C291 201.942 290.504 202.439 289.89 202.439H287.889V133.59Z" fill="#E1E1E1"/>
</g>
<path fill-rule="evenodd" clip-rule="evenodd" d="M287.889 133.59H289.89C290.503 133.59 291 134.085 291 134.699V201.33C291 201.942 290.504 202.439 289.89 202.439H287.889V133.59Z" stroke="#D2D2D2"/>
<g filter="url(#filter4_ii)">
<path fill-rule="evenodd" clip-rule="evenodd" d="M3.22217 45.4188C3.22217 20.887 23.1211 1 47.6688 1H244.331C268.878 1 288.778 20.8878 288.778 45.4188V533.581C288.778 558.113 268.879 578 244.331 578H47.6688C23.1216 578 3.22217 558.112 3.22217 533.581V45.4188Z" fill="#E1E1E1"/>
</g>
<path fill-rule="evenodd" clip-rule="evenodd" d="M3.22217 45.4188C3.22217 20.887 23.1211 1 47.6688 1H244.331C268.878 1 288.778 20.8878 288.778 45.4188V533.581C288.778 558.113 268.879 578 244.331 578H47.6688C23.1216 578 3.22217 558.112 3.22217 533.581V45.4188Z" stroke="#D2D2D2"/>
<g filter="url(#filter5_ii)">
<path d="M8.11108 45.8643C8.11108 23.785 26.0196 5.88618 48.1102 5.88618H243.89C265.981 5.88618 283.889 23.7842 283.889 45.8643V533.136C283.889 555.215 265.98 573.114 243.89 573.114H48.1102C26.0193 573.114 8.11108 555.216 8.11108 533.136V45.8643Z" fill="white"/>
<path d="M8.11108 45.8643C8.11108 23.785 26.0196 5.88618 48.1102 5.88618H243.89C265.981 5.88618 283.889 23.7842 283.889 45.8643V533.136C283.889 555.215 265.98 573.114 243.89 573.114H48.1102C26.0193 573.114 8.11108 555.216 8.11108 533.136V45.8643Z" fill="url(#paint0_linear)"/>
</g>
<path fill-rule="evenodd" clip-rule="evenodd" d="M283.889 56.5236H288.778V60.9655H283.889V56.5236Z" fill="#D6D6D6"/>
<path fill-rule="evenodd" clip-rule="evenodd" d="M3.22217 56.5236H8.11106V60.9655H3.22217V56.5236Z" fill="#D6D6D6"/>
<g filter="url(#filter6_i)">
<path fill-rule="evenodd" clip-rule="evenodd" d="M116.556 27.6513C118.028 27.6513 119.222 26.4581 119.222 24.9861C119.222 23.5142 118.028 22.321 116.556 22.321C115.083 22.321 113.889 23.5142 113.889 24.9861C113.889 26.4581 115.083 27.6513 116.556 27.6513Z" fill="#F0F0F0"/>
</g>
<g filter="url(#filter7_i)">
<path fill-rule="evenodd" clip-rule="evenodd" d="M116.556 26.763C117.537 26.763 118.333 25.9675 118.333 24.9863C118.333 24.005 117.537 23.2095 116.556 23.2095C115.574 23.2095 114.778 24.005 114.778 24.9863C114.778 25.9675 115.574 26.763 116.556 26.763Z" fill="#D7D7D7"/>
</g>
<g filter="url(#filter8_i)">
<path fill-rule="evenodd" clip-rule="evenodd" d="M178.333 29.4281C180.788 29.4281 182.778 27.4394 182.778 24.9863C182.778 22.5331 180.788 20.5444 178.333 20.5444C175.879 20.5444 173.889 22.5331 173.889 24.9863C173.889 27.4394 175.879 29.4281 178.333 29.4281Z" fill="#F0F0F0"/>
</g>
<g filter="url(#filter9_i)">
<path fill-rule="evenodd" clip-rule="evenodd" d="M178.333 28.5399C180.297 28.5399 181.889 26.9489 181.889 24.9864C181.889 23.0238 180.297 21.4329 178.333 21.4329C176.37 21.4329 174.778 23.0238 174.778 24.9864C174.778 26.9489 176.37 28.5399 178.333 28.5399Z" fill="#D7D7D7"/>
</g>
<g filter="url(#filter10_i)">
<path fill-rule="evenodd" clip-rule="evenodd" d="M131.222 23.2095H161C161.982 23.2095 162.778 24.005 162.778 24.9863C162.778 25.9675 161.982 26.763 161 26.763H131.222C130.241 26.763 129.445 25.9675 129.445 24.9863C129.445 24.005 130.241 23.2095 131.222 23.2095Z" fill="#F0F0F0"/>
</g>
<g filter="url(#filter11_i)">
<path fill-rule="evenodd" clip-rule="evenodd" d="M131.222 24.098H161C161.491 24.098 161.889 24.4957 161.889 24.9864C161.889 25.477 161.491 25.8747 161 25.8747H131.222C130.731 25.8747 130.333 25.477 130.333 24.9864C130.333 24.4957 130.731 24.098 131.222 24.098Z" fill="#D7D7D7"/>
</g>
<path fill-rule="evenodd" clip-rule="evenodd" d="M72.3333 18.9896V18.9987C72.4066 18.9927 72.4807 18.9896 72.5556 18.9896C74.0286 18.9896 75.2222 20.1836 75.2222 21.6564V22.9873C75.2222 31.8207 82.396 38.9781 91.2453 38.9781H200.755C209.603 38.9781 216.778 31.8188 216.778 22.9873V18.9896H246.556C260.056 18.9896 271 29.9266 271 43.42V535.58C271 549.072 260.057 560.01 246.556 560.01H45.4441C31.944 560.01 21 549.073 21 535.58V43.42C21 29.9275 31.9433 18.9896 45.4441 18.9896H72.3333ZM219.667 18.9987V18.9896H216.778V21.8777V21.6564C216.778 20.1836 217.971 18.9896 219.444 18.9896C219.519 18.9896 219.593 18.9927 219.667 18.9987Z"/>
<defs>
<filter id="filter0_ii" x="0.5" y="119.764" width="4.11111" height="44.1978" filterUnits="userSpaceOnUse" color-interpolation-filters="sRGB">
<feFlood flood-opacity="0" result="BackgroundImageFix"/>
<feBlend mode="normal" in="SourceGraphic" in2="BackgroundImageFix" result="shape"/>
<feColorMatrix in="SourceAlpha" type="matrix" values="0 0 0 0 0 0 0 0 0 0 0 0 0 0 0 0 0 0 127 0" result="hardAlpha"/>
<feOffset dy="1"/>
<feGaussianBlur stdDeviation="10"/>
<feComposite in2="hardAlpha" operator="arithmetic" k2="-1" k3="1"/>
<feColorMatrix type="matrix" values="0 0 0 0 0 0 0 0 0 0 0 0 0 0 0 0 0 0 0.2 0"/>
<feBlend mode="normal" in2="shape" result="effect1_innerShadow"/>
<feColorMatrix in="SourceAlpha" type="matrix" values="0 0 0 0 0 0 0 0 0 0 0 0 0 0 0 0 0 0 127 0" result="hardAlpha"/>
<feOffset dy="1"/>
<feGaussianBlur stdDeviation="5"/>
<feComposite in2="hardAlpha" operator="arithmetic" k2="-1" k3="1"/>
<feColorMatrix type="matrix" values="0 0 0 0 1 0 0 0 0 1 0 0 0 0 1 0 0 0 1 0"/>
<feBlend mode="normal" in2="effect1_innerShadow" result="effect2_innerShadow"/>
</filter>
<filter id="filter1_ii" x="0.5" y="172.623" width="4.11111" height="44.1978" filterUnits="userSpaceOnUse" color-interpolation-filters="sRGB">
<feFlood flood-opacity="0" result="BackgroundImageFix"/>
<feBlend mode="normal" in="SourceGraphic" in2="BackgroundImageFix" result="shape"/>
<feColorMatrix in="SourceAlpha" type="matrix" values="0 0 0 0 0 0 0 0 0 0 0 0 0 0 0 0 0 0 127 0" result="hardAlpha"/>
<feOffset dy="1"/>
<feGaussianBlur stdDeviation="10"/>
<feComposite in2="hardAlpha" operator="arithmetic" k2="-1" k3="1"/>
<feColorMatrix type="matrix" values="0 0 0 0 0 0 0 0 0 0 0 0 0 0 0 0 0 0 0.2 0"/>
<feBlend mode="normal" in2="shape" result="effect1_innerShadow"/>
<feColorMatrix in="SourceAlpha" type="matrix" values="0 0 0 0 0 0 0 0 0 0 0 0 0 0 0 0 0 0 127 0" result="hardAlpha"/>
<feOffset dy="1"/>
<feGaussianBlur stdDeviation="5"/>
<feComposite in2="hardAlpha" operator="arithmetic" k2="-1" k3="1"/>
<feColorMatrix type="matrix" values="0 0 0 0 1 0 0 0 0 1 0 0 0 0 1 0 0 0 1 0"/>
<feBlend mode="normal" in2="effect1_innerShadow" result="effect2_innerShadow"/>
</filter>
<filter id="filter2_ii" x="0.5" y="78.455" width="4.11111" height="25.0978" filterUnits="userSpaceOnUse" color-interpolation-filters="sRGB">
<feFlood flood-opacity="0" result="BackgroundImageFix"/>
<feBlend mode="normal" in="SourceGraphic" in2="BackgroundImageFix" result="shape"/>
<feColorMatrix in="SourceAlpha" type="matrix" values="0 0 0 0 0 0 0 0 0 0 0 0 0 0 0 0 0 0 127 0" result="hardAlpha"/>
<feOffset dy="1"/>
<feGaussianBlur stdDeviation="10"/>
<feComposite in2="hardAlpha" operator="arithmetic" k2="-1" k3="1"/>
<feColorMatrix type="matrix" values="0 0 0 0 0 0 0 0 0 0 0 0 0 0 0 0 0 0 0.2 0"/>
<feBlend mode="normal" in2="shape" result="effect1_innerShadow"/>
<feColorMatrix in="SourceAlpha" type="matrix" values="0 0 0 0 0 0 0 0 0 0 0 0 0 0 0 0 0 0 127 0" result="hardAlpha"/>
<feOffset dy="1"/>
<feGaussianBlur stdDeviation="5"/>
<feComposite in2="hardAlpha" operator="arithmetic" k2="-1" k3="1"/>
<feColorMatrix type="matrix" values="0 0 0 0 1 0 0 0 0 1 0 0 0 0 1 0 0 0 1 0"/>
<feBlend mode="normal" in2="effect1_innerShadow" result="effect2_innerShadow"/>
</filter>
<filter id="filter3_ii" x="287.389" y="133.09" width="4.11111" height="70.8491" filterUnits="userSpaceOnUse" color-interpolation-filters="sRGB">
<feFlood flood-opacity="0" result="BackgroundImageFix"/>
<feBlend mode="normal" in="SourceGraphic" in2="BackgroundImageFix" result="shape"/>
<feColorMatrix in="SourceAlpha" type="matrix" values="0 0 0 0 0 0 0 0 0 0 0 0 0 0 0 0 0 0 127 0" result="hardAlpha"/>
<feOffset dy="1"/>
<feGaussianBlur stdDeviation="10"/>
<feComposite in2="hardAlpha" operator="arithmetic" k2="-1" k3="1"/>
<feColorMatrix type="matrix" values="0 0 0 0 0 0 0 0 0 0 0 0 0 0 0 0 0 0 0.2 0"/>
<feBlend mode="normal" in2="shape" result="effect1_innerShadow"/>
<feColorMatrix in="SourceAlpha" type="matrix" values="0 0 0 0 0 0 0 0 0 0 0 0 0 0 0 0 0 0 127 0" result="hardAlpha"/>
<feOffset dy="1"/>
<feGaussianBlur stdDeviation="5"/>
<feComposite in2="hardAlpha" operator="arithmetic" k2="-1" k3="1"/>
<feColorMatrix type="matrix" values="0 0 0 0 1 0 0 0 0 1 0 0 0 0 1 0 0 0 1 0"/>
<feBlend mode="normal" in2="effect1_innerShadow" result="effect2_innerShadow"/>
</filter>
<filter id="filter4_ii" x="2.72217" y="0.5" width="286.556" height="579" filterUnits="userSpaceOnUse" color-interpolation-filters="sRGB">
<feFlood flood-opacity="0" result="BackgroundImageFix"/>
<feBlend mode="normal" in="SourceGraphic" in2="BackgroundImageFix" result="shape"/>
<feColorMatrix in="SourceAlpha" type="matrix" values="0 0 0 0 0 0 0 0 0 0 0 0 0 0 0 0 0 0 127 0" result="hardAlpha"/>
<feOffset dy="1"/>
<feGaussianBlur stdDeviation="10"/>
<feComposite in2="hardAlpha" operator="arithmetic" k2="-1" k3="1"/>
<feColorMatrix type="matrix" values="0 0 0 0 0 0 0 0 0 0 0 0 0 0 0 0 0 0 0.2 0"/>
<feBlend mode="normal" in2="shape" result="effect1_innerShadow"/>
<feColorMatrix in="SourceAlpha" type="matrix" values="0 0 0 0 0 0 0 0 0 0 0 0 0 0 0 0 0 0 127 0" result="hardAlpha"/>
<feOffset dy="1"/>
<feGaussianBlur stdDeviation="5"/>
<feComposite in2="hardAlpha" operator="arithmetic" k2="-1" k3="1"/>
<feColorMatrix type="matrix" values="0 0 0 0 1 0 0 0 0 1 0 0 0 0 1 0 0 0 1 0"/>
<feBlend mode="normal" in2="effect1_innerShadow" result="effect2_innerShadow"/>
</filter>
<filter id="filter5_ii" x="8.11108" y="5.88618" width="275.778" height="577.228" filterUnits="userSpaceOnUse" color-interpolation-filters="sRGB">
<feFlood flood-opacity="0" result="BackgroundImageFix"/>
<feBlend mode="normal" in="SourceGraphic" in2="BackgroundImageFix" result="shape"/>
<feColorMatrix in="SourceAlpha" type="matrix" values="0 0 0 0 0 0 0 0 0 0 0 0 0 0 0 0 0 0 127 0" result="hardAlpha"/>
<feOffset dy="1"/>
<feGaussianBlur stdDeviation="30"/>
<feComposite in2="hardAlpha" operator="arithmetic" k2="-1" k3="1"/>
<feColorMatrix type="matrix" values="0 0 0 0 0 0 0 0 0 0 0 0 0 0 0 0 0 0 0.1 0"/>
<feBlend mode="normal" in2="shape" result="effect1_innerShadow"/>
<feColorMatrix in="SourceAlpha" type="matrix" values="0 0 0 0 0 0 0 0 0 0 0 0 0 0 0 0 0 0 127 0" result="hardAlpha"/>
<feOffset dy="10"/>
<feGaussianBlur stdDeviation="20"/>
<feComposite in2="hardAlpha" operator="arithmetic" k2="-1" k3="1"/>
<feColorMatrix type="matrix" values="0 0 0 0 1 0 0 0 0 1 0 0 0 0 1 0 0 0 1 0"/>
<feBlend mode="normal" in2="effect1_innerShadow" result="effect2_innerShadow"/>
</filter>
<filter id="filter6_i" x="113.889" y="22.321" width="5.33333" height="6.33025" filterUnits="userSpaceOnUse" color-interpolation-filters="sRGB">
<feFlood flood-opacity="0" result="BackgroundImageFix"/>
<feBlend mode="normal" in="SourceGraphic" in2="BackgroundImageFix" result="shape"/>
<feColorMatrix in="SourceAlpha" type="matrix" values="0 0 0 0 0 0 0 0 0 0 0 0 0 0 0 0 0 0 127 0" result="hardAlpha"/>
<feOffset dy="1"/>
<feGaussianBlur stdDeviation="1.5"/>
<feComposite in2="hardAlpha" operator="arithmetic" k2="-1" k3="1"/>
<feColorMatrix type="matrix" values="0 0 0 0 0 0 0 0 0 0 0 0 0 0 0 0 0 0 0.05 0"/>
<feBlend mode="normal" in2="shape" result="effect1_innerShadow"/>
</filter>
<filter id="filter7_i" x="114.778" y="23.2095" width="3.55555" height="4.5535" filterUnits="userSpaceOnUse" color-interpolation-filters="sRGB">
<feFlood flood-opacity="0" result="BackgroundImageFix"/>
<feBlend mode="normal" in="SourceGraphic" in2="BackgroundImageFix" result="shape"/>
<feColorMatrix in="SourceAlpha" type="matrix" values="0 0 0 0 0 0 0 0 0 0 0 0 0 0 0 0 0 0 127 0" result="hardAlpha"/>
<feOffset dy="1"/>
<feGaussianBlur stdDeviation="1.5"/>
<feComposite in2="hardAlpha" operator="arithmetic" k2="-1" k3="1"/>
<feColorMatrix type="matrix" values="0 0 0 0 1 0 0 0 0 1 0 0 0 0 1 0 0 0 0.363734 0"/>
<feBlend mode="normal" in2="shape" result="effect1_innerShadow"/>
</filter>
<filter id="filter8_i" x="173.889" y="20.5444" width="8.88887" height="9.88376" filterUnits="userSpaceOnUse" color-interpolation-filters="sRGB">
<feFlood flood-opacity="0" result="BackgroundImageFix"/>
<feBlend mode="normal" in="SourceGraphic" in2="BackgroundImageFix" result="shape"/>
<feColorMatrix in="SourceAlpha" type="matrix" values="0 0 0 0 0 0 0 0 0 0 0 0 0 0 0 0 0 0 127 0" result="hardAlpha"/>
<feOffset dy="1"/>
<feGaussianBlur stdDeviation="1.5"/>
<feComposite in2="hardAlpha" operator="arithmetic" k2="-1" k3="1"/>
<feColorMatrix type="matrix" values="0 0 0 0 0 0 0 0 0 0 0 0 0 0 0 0 0 0 0.05 0"/>
<feBlend mode="normal" in2="shape" result="effect1_innerShadow"/>
</filter>
<filter id="filter9_i" x="174.778" y="21.4329" width="7.1111" height="8.107" filterUnits="userSpaceOnUse" color-interpolation-filters="sRGB">
<feFlood flood-opacity="0" result="BackgroundImageFix"/>
<feBlend mode="normal" in="SourceGraphic" in2="BackgroundImageFix" result="shape"/>
<feColorMatrix in="SourceAlpha" type="matrix" values="0 0 0 0 0 0 0 0 0 0 0 0 0 0 0 0 0 0 127 0" result="hardAlpha"/>
<feOffset dy="1"/>
<feGaussianBlur stdDeviation="1.5"/>
<feComposite in2="hardAlpha" operator="arithmetic" k2="-1" k3="1"/>
<feColorMatrix type="matrix" values="0 0 0 0 1 0 0 0 0 1 0 0 0 0 1 0 0 0 0.363734 0"/>
<feBlend mode="normal" in2="shape" result="effect1_innerShadow"/>
</filter>
<filter id="filter10_i" x="129.445" y="23.2095" width="33.3333" height="4.5535" filterUnits="userSpaceOnUse" color-interpolation-filters="sRGB">
<feFlood flood-opacity="0" result="BackgroundImageFix"/>
<feBlend mode="normal" in="SourceGraphic" in2="BackgroundImageFix" result="shape"/>
<feColorMatrix in="SourceAlpha" type="matrix" values="0 0 0 0 0 0 0 0 0 0 0 0 0 0 0 0 0 0 127 0" result="hardAlpha"/>
<feOffset dy="1"/>
<feGaussianBlur stdDeviation="1.5"/>
<feComposite in2="hardAlpha" operator="arithmetic" k2="-1" k3="1"/>
<feColorMatrix type="matrix" values="0 0 0 0 0 0 0 0 0 0 0 0 0 0 0 0 0 0 0.05 0"/>
<feBlend mode="normal" in2="shape" result="effect1_innerShadow"/>
</filter>
<filter id="filter11_i" x="130.333" y="24.098" width="31.5556" height="2.77675" filterUnits="userSpaceOnUse" color-interpolation-filters="sRGB">
<feFlood flood-opacity="0" result="BackgroundImageFix"/>
<feBlend mode="normal" in="SourceGraphic" in2="BackgroundImageFix" result="shape"/>
<feColorMatrix in="SourceAlpha" type="matrix" values="0 0 0 0 0 0 0 0 0 0 0 0 0 0 0 0 0 0 127 0" result="hardAlpha"/>
<feOffset dy="1"/>
<feGaussianBlur stdDeviation="1.5"/>
<feComposite in2="hardAlpha" operator="arithmetic" k2="-1" k3="1"/>
<feColorMatrix type="matrix" values="0 0 0 0 1 0 0 0 0 1 0 0 0 0 1 0 0 0 0.363734 0"/>
<feBlend mode="normal" in2="shape" result="effect1_innerShadow"/>
</filter>
<linearGradient id="paint0_linear" x1="-129.778" y1="289.5" x2="316.329" y2="506.39" gradientUnits="userSpaceOnUse">
<stop stop-color="white" stop-opacity="0.01"/>
<stop offset="1" stop-opacity="0.03"/>
</linearGradient>
</defs>
</svg>
