<svg width="18" height="18" viewBox="0 0 18 18" fill="none" xmlns="http://www.w3.org/2000/svg">
<path fill-rule="evenodd" clip-rule="evenodd" d="M2.59995 0.200195H15.4C16.7254 0.200195 17.8 1.27471 17.8 2.6002V15.4002C17.8 16.7257 16.7254 17.8002 15.4 17.8002H2.59995C1.27447 17.8002 0.199951 16.7257 0.199951 15.4002V2.6002C0.199951 1.27471 1.27447 0.200195 2.59995 0.200195ZM7.23995 9.8802L3.71995 14.2802H14.28L11.64 10.7602L9.85355 13.145L7.23995 9.8802ZM13.4 5.9202C13.4 5.1898 12.8104 4.6002 12.08 4.6002C11.3496 4.6002 10.76 5.1898 10.76 5.9202C10.76 6.6506 11.3496 7.2402 12.08 7.2402C12.8104 7.2402 13.4 6.6506 13.4 5.9202Z" fill="#969696"/>
</svg>
